<?xml version="1.0" encoding="UTF-8" standalone="no"?>
<!DOCTYPE svg PUBLIC "-//W3C//DTD SVG 1.1//EN"
 "http://www.w3.org/Graphics/SVG/1.1/DTD/svg11.dtd">
<!-- Generated by graphviz version 2.49.1 (20210923.0004)
 -->
<!-- Pages: 1 -->
<svg width="2082pt" height="566pt"
 viewBox="0.00 0.00 2082.00 566.00" xmlns="http://www.w3.org/2000/svg" xmlns:xlink="http://www.w3.org/1999/xlink">
<g id="graph0" class="graph" transform="scale(1 1) rotate(0) translate(4 562)">
<polygon fill="white" stroke="transparent" points="-4,4 -4,-562 2078,-562 2078,4 -4,4"/>
<!-- N0 -->
<g id="node1" class="node">
<title>N0</title>
<polygon fill="#cccccc" stroke="#cccccc" points="1013,-558 870,-558 870,-505 1013,-505 1013,-558"/>
<text text-anchor="middle" x="941.5" y="-542.8" font-family="Times New Roman,serif" font-size="14.00">Atributo: Tipo</text>
<text text-anchor="middle" x="941.5" y="-527.8" font-family="Times New Roman,serif" font-size="14.00">Pureza: 0.00</text>
<text text-anchor="middle" x="941.5" y="-512.8" font-family="Times New Roman,serif" font-size="14.00">Datos en segmento: 40</text>
</g>
<!-- N28 -->
<g id="node2" class="node">
<title>N28</title>
<polygon fill="#c6c9cc" stroke="#c6c9cc" points="370,-454 233,-454 233,-401 370,-401 370,-454"/>
<text text-anchor="middle" x="301.5" y="-438.8" font-family="Times New Roman,serif" font-size="14.00">Atributo: Clientes</text>
<text text-anchor="middle" x="301.5" y="-423.8" font-family="Times New Roman,serif" font-size="14.00">Pureza: 0.03</text>
<text text-anchor="middle" x="301.5" y="-408.8" font-family="Times New Roman,serif" font-size="14.00">Datos en segmento: 5</text>
</g>
<!-- N0&#45;&gt;N28 -->
<g id="edge1" class="edge">
<title>N0&#45;&gt;N28</title>
<path fill="none" stroke="black" d="M869.95,-519.1C749.11,-499.84 505.53,-461.02 380.1,-441.03"/>
<polygon fill="black" stroke="black" points="380.6,-437.56 370.17,-439.44 379.49,-444.47 380.6,-437.56"/>
<text text-anchor="middle" x="687.5" y="-475.8" font-family="Times New Roman,serif" font-size="14.00">Tailandes</text>
</g>
<!-- N20 -->
<g id="node3" class="node">
<title>N20</title>
<polygon fill="#cccccc" stroke="#cccccc" points="817,-454 680,-454 680,-401 817,-401 817,-454"/>
<text text-anchor="middle" x="748.5" y="-438.8" font-family="Times New Roman,serif" font-size="14.00">Atributo: Clientes</text>
<text text-anchor="middle" x="748.5" y="-423.8" font-family="Times New Roman,serif" font-size="14.00">Pureza: 0.00</text>
<text text-anchor="middle" x="748.5" y="-408.8" font-family="Times New Roman,serif" font-size="14.00">Datos en segmento: 6</text>
</g>
<!-- N0&#45;&gt;N20 -->
<g id="edge2" class="edge">
<title>N0&#45;&gt;N20</title>
<path fill="none" stroke="black" d="M892.8,-504.76C866.41,-490.82 833.65,-473.5 806.01,-458.89"/>
<polygon fill="black" stroke="black" points="807.33,-455.63 796.85,-454.05 804.06,-461.82 807.33,-455.63"/>
<text text-anchor="middle" x="878" y="-475.8" font-family="Times New Roman,serif" font-size="14.00">Italiano</text>
</g>
<!-- N15 -->
<g id="node4" class="node">
<title>N15</title>
<polygon fill="#669bcc" stroke="#669bcc" points="1144,-454 1007,-454 1007,-401 1144,-401 1144,-454"/>
<text text-anchor="middle" x="1075.5" y="-438.8" font-family="Times New Roman,serif" font-size="14.00">Atributo: Alt</text>
<text text-anchor="middle" x="1075.5" y="-423.8" font-family="Times New Roman,serif" font-size="14.00">Pureza: 0.50</text>
<text text-anchor="middle" x="1075.5" y="-408.8" font-family="Times New Roman,serif" font-size="14.00">Datos en segmento: 9</text>
</g>
<!-- N0&#45;&gt;N15 -->
<g id="edge3" class="edge">
<title>N0&#45;&gt;N15</title>
<path fill="none" stroke="black" d="M975.31,-504.76C993.01,-491.29 1014.84,-474.68 1033.59,-460.4"/>
<polygon fill="black" stroke="black" points="1035.86,-463.07 1041.7,-454.23 1031.62,-457.5 1035.86,-463.07"/>
<text text-anchor="middle" x="1040" y="-475.8" font-family="Times New Roman,serif" font-size="14.00">Frances</text>
</g>
<!-- N1 -->
<g id="node5" class="node">
<title>N1</title>
<polygon fill="#a5b9cc" stroke="#a5b9cc" points="1506,-454 1363,-454 1363,-401 1506,-401 1506,-454"/>
<text text-anchor="middle" x="1434.5" y="-438.8" font-family="Times New Roman,serif" font-size="14.00">Atributo: Llov</text>
<text text-anchor="middle" x="1434.5" y="-423.8" font-family="Times New Roman,serif" font-size="14.00">Pureza: 0.19</text>
<text text-anchor="middle" x="1434.5" y="-408.8" font-family="Times New Roman,serif" font-size="14.00">Datos en segmento: 20</text>
</g>
<!-- N0&#45;&gt;N1 -->
<g id="edge4" class="edge">
<title>N0&#45;&gt;N1</title>
<path fill="none" stroke="black" d="M1013.19,-515.67C1103.46,-496.99 1258.18,-464.98 1352.9,-445.38"/>
<polygon fill="black" stroke="black" points="1353.64,-448.8 1362.73,-443.35 1352.23,-441.95 1353.64,-448.8"/>
<text text-anchor="middle" x="1246.5" y="-475.8" font-family="Times New Roman,serif" font-size="14.00">Hamburg.</text>
</g>
<!-- N31 -->
<g id="node6" class="node">
<title>N31</title>
<polygon fill="#006acc" stroke="#006acc" points="137,-342.5 0,-342.5 0,-304.5 137,-304.5 137,-342.5"/>
<text text-anchor="middle" x="68.5" y="-327.3" font-family="Times New Roman,serif" font-size="14.00">Valor de Esperar: Si</text>
<text text-anchor="middle" x="68.5" y="-312.3" font-family="Times New Roman,serif" font-size="14.00">Datos en segmento: 1</text>
</g>
<!-- N28&#45;&gt;N31 -->
<g id="edge5" class="edge">
<title>N28&#45;&gt;N31</title>
<path fill="none" stroke="black" d="M243.01,-400.89C204.89,-384.21 155.66,-362.65 119.21,-346.7"/>
<polygon fill="black" stroke="black" points="120.32,-343.37 109.76,-342.56 117.52,-349.78 120.32,-343.37"/>
<text text-anchor="middle" x="223.5" y="-371.8" font-family="Times New Roman,serif" font-size="14.00">Ninguno</text>
</g>
<!-- N30 -->
<g id="node7" class="node">
<title>N30</title>
<polygon fill="#006acc" stroke="#006acc" points="292,-342.5 155,-342.5 155,-304.5 292,-304.5 292,-342.5"/>
<text text-anchor="middle" x="223.5" y="-327.3" font-family="Times New Roman,serif" font-size="14.00">Valor de Esperar: Si</text>
<text text-anchor="middle" x="223.5" y="-312.3" font-family="Times New Roman,serif" font-size="14.00">Datos en segmento: 2</text>
</g>
<!-- N28&#45;&gt;N30 -->
<g id="edge6" class="edge">
<title>N28&#45;&gt;N30</title>
<path fill="none" stroke="black" d="M281.82,-400.76C270.09,-385.42 255.24,-366.01 243.46,-350.61"/>
<polygon fill="black" stroke="black" points="246.13,-348.33 237.28,-342.52 240.57,-352.59 246.13,-348.33"/>
<text text-anchor="middle" x="291" y="-371.8" font-family="Times New Roman,serif" font-size="14.00">Algunos</text>
</g>
<!-- N29 -->
<g id="node8" class="node">
<title>N29</title>
<polygon fill="#006acc" stroke="#006acc" points="447,-342.5 310,-342.5 310,-304.5 447,-304.5 447,-342.5"/>
<text text-anchor="middle" x="378.5" y="-327.3" font-family="Times New Roman,serif" font-size="14.00">Valor de Esperar: No</text>
<text text-anchor="middle" x="378.5" y="-312.3" font-family="Times New Roman,serif" font-size="14.00">Datos en segmento: 2</text>
</g>
<!-- N28&#45;&gt;N29 -->
<g id="edge7" class="edge">
<title>N28&#45;&gt;N29</title>
<path fill="none" stroke="black" d="M320.93,-400.76C332.51,-385.42 347.16,-366.01 358.79,-350.61"/>
<polygon fill="black" stroke="black" points="361.67,-352.61 364.9,-342.52 356.08,-348.39 361.67,-352.61"/>
<text text-anchor="middle" x="361.5" y="-371.8" font-family="Times New Roman,serif" font-size="14.00">Lleno</text>
</g>
<!-- N27 -->
<g id="node9" class="node">
<title>N27</title>
<polygon fill="#006acc" stroke="#006acc" points="602,-342.5 465,-342.5 465,-304.5 602,-304.5 602,-342.5"/>
<text text-anchor="middle" x="533.5" y="-327.3" font-family="Times New Roman,serif" font-size="14.00">Valor de Esperar: Si</text>
<text text-anchor="middle" x="533.5" y="-312.3" font-family="Times New Roman,serif" font-size="14.00">Datos en segmento: 1</text>
</g>
<!-- N20&#45;&gt;N27 -->
<g id="edge8" class="edge">
<title>N20&#45;&gt;N27</title>
<path fill="none" stroke="black" d="M694.52,-400.89C659.5,-384.28 614.31,-362.84 580.72,-346.9"/>
<polygon fill="black" stroke="black" points="582.11,-343.69 571.57,-342.56 579.11,-350.01 582.11,-343.69"/>
<text text-anchor="middle" x="670.5" y="-371.8" font-family="Times New Roman,serif" font-size="14.00">Lleno</text>
</g>
<!-- N24 -->
<g id="node10" class="node">
<title>N24</title>
<polygon fill="#cccccc" stroke="#cccccc" points="757,-350 620,-350 620,-297 757,-297 757,-350"/>
<text text-anchor="middle" x="688.5" y="-334.8" font-family="Times New Roman,serif" font-size="14.00">Atributo: Bar</text>
<text text-anchor="middle" x="688.5" y="-319.8" font-family="Times New Roman,serif" font-size="14.00">Pureza: 0.00</text>
<text text-anchor="middle" x="688.5" y="-304.8" font-family="Times New Roman,serif" font-size="14.00">Datos en segmento: 2</text>
</g>
<!-- N20&#45;&gt;N24 -->
<g id="edge9" class="edge">
<title>N20&#45;&gt;N24</title>
<path fill="none" stroke="black" d="M733.36,-400.76C725.9,-388.08 716.8,-372.6 708.75,-358.92"/>
<polygon fill="black" stroke="black" points="711.72,-357.08 703.64,-350.23 705.69,-360.62 711.72,-357.08"/>
<text text-anchor="middle" x="746" y="-371.8" font-family="Times New Roman,serif" font-size="14.00">Algunos</text>
</g>
<!-- N21 -->
<g id="node11" class="node">
<title>N21</title>
<polygon fill="#bbc3cc" stroke="#bbc3cc" points="912,-350 775,-350 775,-297 912,-297 912,-350"/>
<text text-anchor="middle" x="843.5" y="-334.8" font-family="Times New Roman,serif" font-size="14.00">Atributo: Llov</text>
<text text-anchor="middle" x="843.5" y="-319.8" font-family="Times New Roman,serif" font-size="14.00">Pureza: 0.08</text>
<text text-anchor="middle" x="843.5" y="-304.8" font-family="Times New Roman,serif" font-size="14.00">Datos en segmento: 3</text>
</g>
<!-- N20&#45;&gt;N21 -->
<g id="edge10" class="edge">
<title>N20&#45;&gt;N21</title>
<path fill="none" stroke="black" d="M772.47,-400.76C784.62,-387.71 799.52,-371.72 812.53,-357.75"/>
<polygon fill="black" stroke="black" points="815.28,-359.93 819.54,-350.23 810.16,-355.16 815.28,-359.93"/>
<text text-anchor="middle" x="826.5" y="-371.8" font-family="Times New Roman,serif" font-size="14.00">Ninguno</text>
</g>
<!-- N17 -->
<g id="node16" class="node">
<title>N17</title>
<polygon fill="#bbc3cc" stroke="#bbc3cc" points="1144,-350 1007,-350 1007,-297 1144,-297 1144,-350"/>
<text text-anchor="middle" x="1075.5" y="-334.8" font-family="Times New Roman,serif" font-size="14.00">Atributo: Ham</text>
<text text-anchor="middle" x="1075.5" y="-319.8" font-family="Times New Roman,serif" font-size="14.00">Pureza: 0.08</text>
<text text-anchor="middle" x="1075.5" y="-304.8" font-family="Times New Roman,serif" font-size="14.00">Datos en segmento: 3</text>
</g>
<!-- N15&#45;&gt;N17 -->
<g id="edge15" class="edge">
<title>N15&#45;&gt;N17</title>
<path fill="none" stroke="black" d="M1075.5,-400.76C1075.5,-388.56 1075.5,-373.78 1075.5,-360.49"/>
<polygon fill="black" stroke="black" points="1079,-360.23 1075.5,-350.23 1072,-360.23 1079,-360.23"/>
<text text-anchor="middle" x="1084.5" y="-371.8" font-family="Times New Roman,serif" font-size="14.00">No</text>
</g>
<!-- N16 -->
<g id="node17" class="node">
<title>N16</title>
<polygon fill="#006acc" stroke="#006acc" points="1299,-342.5 1162,-342.5 1162,-304.5 1299,-304.5 1299,-342.5"/>
<text text-anchor="middle" x="1230.5" y="-327.3" font-family="Times New Roman,serif" font-size="14.00">Valor de Esperar: No</text>
<text text-anchor="middle" x="1230.5" y="-312.3" font-family="Times New Roman,serif" font-size="14.00">Datos en segmento: 6</text>
</g>
<!-- N15&#45;&gt;N16 -->
<g id="edge16" class="edge">
<title>N15&#45;&gt;N16</title>
<path fill="none" stroke="black" d="M1114.61,-400.76C1139.21,-384.57 1170.72,-363.84 1194.67,-348.08"/>
<polygon fill="black" stroke="black" points="1196.69,-350.94 1203.12,-342.52 1192.85,-345.09 1196.69,-350.94"/>
<text text-anchor="middle" x="1168.5" y="-371.8" font-family="Times New Roman,serif" font-size="14.00">Si</text>
</g>
<!-- N8 -->
<g id="node20" class="node">
<title>N8</title>
<polygon fill="#cacbcc" stroke="#cacbcc" points="1503,-350 1366,-350 1366,-297 1503,-297 1503,-350"/>
<text text-anchor="middle" x="1434.5" y="-334.8" font-family="Times New Roman,serif" font-size="14.00">Atributo: Alt</text>
<text text-anchor="middle" x="1434.5" y="-319.8" font-family="Times New Roman,serif" font-size="14.00">Pureza: 0.01</text>
<text text-anchor="middle" x="1434.5" y="-304.8" font-family="Times New Roman,serif" font-size="14.00">Datos en segmento: 9</text>
</g>
<!-- N1&#45;&gt;N8 -->
<g id="edge19" class="edge">
<title>N1&#45;&gt;N8</title>
<path fill="none" stroke="black" d="M1434.5,-400.76C1434.5,-388.56 1434.5,-373.78 1434.5,-360.49"/>
<polygon fill="black" stroke="black" points="1438,-360.23 1434.5,-350.23 1431,-360.23 1438,-360.23"/>
<text text-anchor="middle" x="1443.5" y="-371.8" font-family="Times New Roman,serif" font-size="14.00">No</text>
</g>
<!-- N2 -->
<g id="node21" class="node">
<title>N2</title>
<polygon fill="#5995cc" stroke="#5995cc" points="1815,-350 1672,-350 1672,-297 1815,-297 1815,-350"/>
<text text-anchor="middle" x="1743.5" y="-334.8" font-family="Times New Roman,serif" font-size="14.00">Atributo: Precio</text>
<text text-anchor="middle" x="1743.5" y="-319.8" font-family="Times New Roman,serif" font-size="14.00">Pureza: 0.56</text>
<text text-anchor="middle" x="1743.5" y="-304.8" font-family="Times New Roman,serif" font-size="14.00">Datos en segmento: 11</text>
</g>
<!-- N1&#45;&gt;N2 -->
<g id="edge20" class="edge">
<title>N1&#45;&gt;N2</title>
<path fill="none" stroke="black" d="M1506.17,-402.84C1552.88,-387.42 1613.94,-367.27 1662.43,-351.26"/>
<polygon fill="black" stroke="black" points="1663.56,-354.58 1671.95,-348.12 1661.36,-347.93 1663.56,-354.58"/>
<text text-anchor="middle" x="1614.5" y="-371.8" font-family="Times New Roman,serif" font-size="14.00">Si</text>
</g>
<!-- N26 -->
<g id="node12" class="node">
<title>N26</title>
<polygon fill="#006acc" stroke="#006acc" points="524,-238.5 387,-238.5 387,-200.5 524,-200.5 524,-238.5"/>
<text text-anchor="middle" x="455.5" y="-223.3" font-family="Times New Roman,serif" font-size="14.00">Valor de Esperar: Si</text>
<text text-anchor="middle" x="455.5" y="-208.3" font-family="Times New Roman,serif" font-size="14.00">Datos en segmento: 1</text>
</g>
<!-- N24&#45;&gt;N26 -->
<g id="edge11" class="edge">
<title>N24&#45;&gt;N26</title>
<path fill="none" stroke="black" d="M630.01,-296.89C591.89,-280.21 542.66,-258.65 506.21,-242.7"/>
<polygon fill="black" stroke="black" points="507.32,-239.37 496.76,-238.56 504.52,-245.78 507.32,-239.37"/>
<text text-anchor="middle" x="595.5" y="-267.8" font-family="Times New Roman,serif" font-size="14.00">No</text>
</g>
<!-- N25 -->
<g id="node13" class="node">
<title>N25</title>
<polygon fill="#006acc" stroke="#006acc" points="679,-238.5 542,-238.5 542,-200.5 679,-200.5 679,-238.5"/>
<text text-anchor="middle" x="610.5" y="-223.3" font-family="Times New Roman,serif" font-size="14.00">Valor de Esperar: No</text>
<text text-anchor="middle" x="610.5" y="-208.3" font-family="Times New Roman,serif" font-size="14.00">Datos en segmento: 1</text>
</g>
<!-- N24&#45;&gt;N25 -->
<g id="edge12" class="edge">
<title>N24&#45;&gt;N25</title>
<path fill="none" stroke="black" d="M668.82,-296.76C657.09,-281.42 642.24,-262.01 630.46,-246.61"/>
<polygon fill="black" stroke="black" points="633.13,-244.33 624.28,-238.52 627.57,-248.59 633.13,-244.33"/>
<text text-anchor="middle" x="660.5" y="-267.8" font-family="Times New Roman,serif" font-size="14.00">Si</text>
</g>
<!-- N23 -->
<g id="node14" class="node">
<title>N23</title>
<polygon fill="#006acc" stroke="#006acc" points="834,-238.5 697,-238.5 697,-200.5 834,-200.5 834,-238.5"/>
<text text-anchor="middle" x="765.5" y="-223.3" font-family="Times New Roman,serif" font-size="14.00">Valor de Esperar: Si</text>
<text text-anchor="middle" x="765.5" y="-208.3" font-family="Times New Roman,serif" font-size="14.00">Datos en segmento: 1</text>
</g>
<!-- N21&#45;&gt;N23 -->
<g id="edge13" class="edge">
<title>N21&#45;&gt;N23</title>
<path fill="none" stroke="black" d="M823.82,-296.76C812.09,-281.42 797.24,-262.01 785.46,-246.61"/>
<polygon fill="black" stroke="black" points="788.13,-244.33 779.28,-238.52 782.57,-248.59 788.13,-244.33"/>
<text text-anchor="middle" x="815.5" y="-267.8" font-family="Times New Roman,serif" font-size="14.00">Si</text>
</g>
<!-- N22 -->
<g id="node15" class="node">
<title>N22</title>
<polygon fill="#006acc" stroke="#006acc" points="989,-238.5 852,-238.5 852,-200.5 989,-200.5 989,-238.5"/>
<text text-anchor="middle" x="920.5" y="-223.3" font-family="Times New Roman,serif" font-size="14.00">Valor de Esperar: No</text>
<text text-anchor="middle" x="920.5" y="-208.3" font-family="Times New Roman,serif" font-size="14.00">Datos en segmento: 2</text>
</g>
<!-- N21&#45;&gt;N22 -->
<g id="edge14" class="edge">
<title>N21&#45;&gt;N22</title>
<path fill="none" stroke="black" d="M862.93,-296.76C874.51,-281.42 889.16,-262.01 900.79,-246.61"/>
<polygon fill="black" stroke="black" points="903.67,-248.61 906.9,-238.52 898.08,-244.39 903.67,-248.61"/>
<text text-anchor="middle" x="896.5" y="-267.8" font-family="Times New Roman,serif" font-size="14.00">No</text>
</g>
<!-- N19 -->
<g id="node18" class="node">
<title>N19</title>
<polygon fill="#006acc" stroke="#006acc" points="1144,-238.5 1007,-238.5 1007,-200.5 1144,-200.5 1144,-238.5"/>
<text text-anchor="middle" x="1075.5" y="-223.3" font-family="Times New Roman,serif" font-size="14.00">Valor de Esperar: Si</text>
<text text-anchor="middle" x="1075.5" y="-208.3" font-family="Times New Roman,serif" font-size="14.00">Datos en segmento: 1</text>
</g>
<!-- N17&#45;&gt;N19 -->
<g id="edge17" class="edge">
<title>N17&#45;&gt;N19</title>
<path fill="none" stroke="black" d="M1075.5,-296.76C1075.5,-282.13 1075.5,-263.8 1075.5,-248.77"/>
<polygon fill="black" stroke="black" points="1079,-248.52 1075.5,-238.52 1072,-248.52 1079,-248.52"/>
<text text-anchor="middle" x="1084.5" y="-267.8" font-family="Times New Roman,serif" font-size="14.00">No</text>
</g>
<!-- N18 -->
<g id="node19" class="node">
<title>N18</title>
<polygon fill="#006acc" stroke="#006acc" points="1299,-238.5 1162,-238.5 1162,-200.5 1299,-200.5 1299,-238.5"/>
<text text-anchor="middle" x="1230.5" y="-223.3" font-family="Times New Roman,serif" font-size="14.00">Valor de Esperar: No</text>
<text text-anchor="middle" x="1230.5" y="-208.3" font-family="Times New Roman,serif" font-size="14.00">Datos en segmento: 2</text>
</g>
<!-- N17&#45;&gt;N18 -->
<g id="edge18" class="edge">
<title>N17&#45;&gt;N18</title>
<path fill="none" stroke="black" d="M1114.61,-296.76C1139.21,-280.57 1170.72,-259.84 1194.67,-244.08"/>
<polygon fill="black" stroke="black" points="1196.69,-246.94 1203.12,-238.52 1192.85,-241.09 1196.69,-246.94"/>
<text text-anchor="middle" x="1168.5" y="-267.8" font-family="Times New Roman,serif" font-size="14.00">Si</text>
</g>
<!-- N14 -->
<g id="node22" class="node">
<title>N14</title>
<polygon fill="#006acc" stroke="#006acc" points="1454,-238.5 1317,-238.5 1317,-200.5 1454,-200.5 1454,-238.5"/>
<text text-anchor="middle" x="1385.5" y="-223.3" font-family="Times New Roman,serif" font-size="14.00">Valor de Esperar: Si</text>
<text text-anchor="middle" x="1385.5" y="-208.3" font-family="Times New Roman,serif" font-size="14.00">Datos en segmento: 3</text>
</g>
<!-- N8&#45;&gt;N14 -->
<g id="edge21" class="edge">
<title>N8&#45;&gt;N14</title>
<path fill="none" stroke="black" d="M1422.14,-296.76C1414.97,-281.85 1405.96,-263.08 1398.66,-247.9"/>
<polygon fill="black" stroke="black" points="1401.64,-246.01 1394.15,-238.52 1395.33,-249.04 1401.64,-246.01"/>
<text text-anchor="middle" x="1422.5" y="-267.8" font-family="Times New Roman,serif" font-size="14.00">No</text>
</g>
<!-- N9 -->
<g id="node23" class="node">
<title>N9</title>
<polygon fill="#84a9cc" stroke="#84a9cc" points="1609,-246 1472,-246 1472,-193 1609,-193 1609,-246"/>
<text text-anchor="middle" x="1540.5" y="-230.8" font-family="Times New Roman,serif" font-size="14.00">Atributo: Vier</text>
<text text-anchor="middle" x="1540.5" y="-215.8" font-family="Times New Roman,serif" font-size="14.00">Pureza: 0.35</text>
<text text-anchor="middle" x="1540.5" y="-200.8" font-family="Times New Roman,serif" font-size="14.00">Datos en segmento: 6</text>
</g>
<!-- N8&#45;&gt;N9 -->
<g id="edge22" class="edge">
<title>N8&#45;&gt;N9</title>
<path fill="none" stroke="black" d="M1461.25,-296.76C1474.93,-283.59 1491.74,-267.42 1506.35,-253.36"/>
<polygon fill="black" stroke="black" points="1508.98,-255.69 1513.76,-246.23 1504.13,-250.64 1508.98,-255.69"/>
<text text-anchor="middle" x="1500.5" y="-267.8" font-family="Times New Roman,serif" font-size="14.00">Si</text>
</g>
<!-- N7 -->
<g id="node28" class="node">
<title>N7</title>
<polygon fill="#006acc" stroke="#006acc" points="1764,-238.5 1627,-238.5 1627,-200.5 1764,-200.5 1764,-238.5"/>
<text text-anchor="middle" x="1695.5" y="-223.3" font-family="Times New Roman,serif" font-size="14.00">Valor de Esperar: No</text>
<text text-anchor="middle" x="1695.5" y="-208.3" font-family="Times New Roman,serif" font-size="14.00">Datos en segmento: 2</text>
</g>
<!-- N2&#45;&gt;N7 -->
<g id="edge27" class="edge">
<title>N2&#45;&gt;N7</title>
<path fill="none" stroke="black" d="M1731.39,-296.76C1724.37,-281.85 1715.54,-263.08 1708.39,-247.9"/>
<polygon fill="black" stroke="black" points="1711.4,-246.07 1703.98,-238.52 1705.07,-249.05 1711.4,-246.07"/>
<text text-anchor="middle" x="1729.5" y="-267.8" font-family="Times New Roman,serif" font-size="14.00">$$</text>
</g>
<!-- N4 -->
<g id="node29" class="node">
<title>N4</title>
<polygon fill="#bbc3cc" stroke="#bbc3cc" points="1919,-246 1782,-246 1782,-193 1919,-193 1919,-246"/>
<text text-anchor="middle" x="1850.5" y="-230.8" font-family="Times New Roman,serif" font-size="14.00">Atributo: Ham</text>
<text text-anchor="middle" x="1850.5" y="-215.8" font-family="Times New Roman,serif" font-size="14.00">Pureza: 0.08</text>
<text text-anchor="middle" x="1850.5" y="-200.8" font-family="Times New Roman,serif" font-size="14.00">Datos en segmento: 3</text>
</g>
<!-- N2&#45;&gt;N4 -->
<g id="edge28" class="edge">
<title>N2&#45;&gt;N4</title>
<path fill="none" stroke="black" d="M1770.5,-296.76C1784.31,-283.59 1801.28,-267.42 1816.03,-253.36"/>
<polygon fill="black" stroke="black" points="1818.68,-255.66 1823.51,-246.23 1813.85,-250.6 1818.68,-255.66"/>
<text text-anchor="middle" x="1814" y="-267.8" font-family="Times New Roman,serif" font-size="14.00">$$$</text>
</g>
<!-- N3 -->
<g id="node30" class="node">
<title>N3</title>
<polygon fill="#006acc" stroke="#006acc" points="2074,-238.5 1937,-238.5 1937,-200.5 2074,-200.5 2074,-238.5"/>
<text text-anchor="middle" x="2005.5" y="-223.3" font-family="Times New Roman,serif" font-size="14.00">Valor de Esperar: No</text>
<text text-anchor="middle" x="2005.5" y="-208.3" font-family="Times New Roman,serif" font-size="14.00">Datos en segmento: 6</text>
</g>
<!-- N2&#45;&gt;N3 -->
<g id="edge29" class="edge">
<title>N2&#45;&gt;N3</title>
<path fill="none" stroke="black" d="M1809.28,-296.89C1852.59,-280.03 1908.67,-258.2 1949.78,-242.19"/>
<polygon fill="black" stroke="black" points="1951.06,-245.45 1959.11,-238.56 1948.52,-238.93 1951.06,-245.45"/>
<text text-anchor="middle" x="1894" y="-267.8" font-family="Times New Roman,serif" font-size="14.00">$</text>
</g>
<!-- N11 -->
<g id="node24" class="node">
<title>N11</title>
<polygon fill="#cccccc" stroke="#cccccc" points="1493,-142 1356,-142 1356,-89 1493,-89 1493,-142"/>
<text text-anchor="middle" x="1424.5" y="-126.8" font-family="Times New Roman,serif" font-size="14.00">Atributo: Precio</text>
<text text-anchor="middle" x="1424.5" y="-111.8" font-family="Times New Roman,serif" font-size="14.00">Pureza: 0.00</text>
<text text-anchor="middle" x="1424.5" y="-96.8" font-family="Times New Roman,serif" font-size="14.00">Datos en segmento: 2</text>
</g>
<!-- N9&#45;&gt;N11 -->
<g id="edge23" class="edge">
<title>N9&#45;&gt;N11</title>
<path fill="none" stroke="black" d="M1511.23,-192.76C1496.12,-179.47 1477.52,-163.12 1461.43,-148.98"/>
<polygon fill="black" stroke="black" points="1463.58,-146.21 1453.76,-142.23 1458.96,-151.46 1463.58,-146.21"/>
<text text-anchor="middle" x="1498.5" y="-163.8" font-family="Times New Roman,serif" font-size="14.00">No</text>
</g>
<!-- N10 -->
<g id="node25" class="node">
<title>N10</title>
<polygon fill="#006acc" stroke="#006acc" points="1648,-134.5 1511,-134.5 1511,-96.5 1648,-96.5 1648,-134.5"/>
<text text-anchor="middle" x="1579.5" y="-119.3" font-family="Times New Roman,serif" font-size="14.00">Valor de Esperar: No</text>
<text text-anchor="middle" x="1579.5" y="-104.3" font-family="Times New Roman,serif" font-size="14.00">Datos en segmento: 4</text>
</g>
<!-- N9&#45;&gt;N10 -->
<g id="edge24" class="edge">
<title>N9&#45;&gt;N10</title>
<path fill="none" stroke="black" d="M1550.34,-192.76C1556.04,-177.85 1563.22,-159.08 1569.02,-143.9"/>
<polygon fill="black" stroke="black" points="1572.31,-145.11 1572.61,-134.52 1565.77,-142.61 1572.31,-145.11"/>
<text text-anchor="middle" x="1568.5" y="-163.8" font-family="Times New Roman,serif" font-size="14.00">Si</text>
</g>
<!-- N13 -->
<g id="node26" class="node">
<title>N13</title>
<polygon fill="#006acc" stroke="#006acc" points="1416,-38 1279,-38 1279,0 1416,0 1416,-38"/>
<text text-anchor="middle" x="1347.5" y="-22.8" font-family="Times New Roman,serif" font-size="14.00">Valor de Esperar: Si</text>
<text text-anchor="middle" x="1347.5" y="-7.8" font-family="Times New Roman,serif" font-size="14.00">Datos en segmento: 1</text>
</g>
<!-- N11&#45;&gt;N13 -->
<g id="edge25" class="edge">
<title>N11&#45;&gt;N13</title>
<path fill="none" stroke="black" d="M1403.46,-88.68C1392.62,-75.37 1379.43,-59.19 1368.59,-45.88"/>
<polygon fill="black" stroke="black" points="1371.21,-43.55 1362.18,-38.01 1365.78,-47.97 1371.21,-43.55"/>
<text text-anchor="middle" x="1392" y="-59.8" font-family="Times New Roman,serif" font-size="14.00">$</text>
</g>
<!-- N12 -->
<g id="node27" class="node">
<title>N12</title>
<polygon fill="#006acc" stroke="#006acc" points="1571,-38 1434,-38 1434,0 1571,0 1571,-38"/>
<text text-anchor="middle" x="1502.5" y="-22.8" font-family="Times New Roman,serif" font-size="14.00">Valor de Esperar: No</text>
<text text-anchor="middle" x="1502.5" y="-7.8" font-family="Times New Roman,serif" font-size="14.00">Datos en segmento: 1</text>
</g>
<!-- N11&#45;&gt;N12 -->
<g id="edge26" class="edge">
<title>N11&#45;&gt;N12</title>
<path fill="none" stroke="black" d="M1445.81,-88.68C1456.8,-75.37 1470.15,-59.19 1481.14,-45.88"/>
<polygon fill="black" stroke="black" points="1483.97,-47.95 1487.63,-38.01 1478.57,-43.5 1483.97,-47.95"/>
<text text-anchor="middle" x="1484" y="-59.8" font-family="Times New Roman,serif" font-size="14.00">$$$</text>
</g>
<!-- N6 -->
<g id="node31" class="node">
<title>N6</title>
<polygon fill="#006acc" stroke="#006acc" points="1880,-134.5 1743,-134.5 1743,-96.5 1880,-96.5 1880,-134.5"/>
<text text-anchor="middle" x="1811.5" y="-119.3" font-family="Times New Roman,serif" font-size="14.00">Valor de Esperar: Si</text>
<text text-anchor="middle" x="1811.5" y="-104.3" font-family="Times New Roman,serif" font-size="14.00">Datos en segmento: 1</text>
</g>
<!-- N4&#45;&gt;N6 -->
<g id="edge30" class="edge">
<title>N4&#45;&gt;N6</title>
<path fill="none" stroke="black" d="M1840.66,-192.76C1834.96,-177.85 1827.78,-159.08 1821.98,-143.9"/>
<polygon fill="black" stroke="black" points="1825.23,-142.61 1818.39,-134.52 1818.69,-145.11 1825.23,-142.61"/>
<text text-anchor="middle" x="1842.5" y="-163.8" font-family="Times New Roman,serif" font-size="14.00">No</text>
</g>
<!-- N5 -->
<g id="node32" class="node">
<title>N5</title>
<polygon fill="#006acc" stroke="#006acc" points="2035,-134.5 1898,-134.5 1898,-96.5 2035,-96.5 2035,-134.5"/>
<text text-anchor="middle" x="1966.5" y="-119.3" font-family="Times New Roman,serif" font-size="14.00">Valor de Esperar: No</text>
<text text-anchor="middle" x="1966.5" y="-104.3" font-family="Times New Roman,serif" font-size="14.00">Datos en segmento: 2</text>
</g>
<!-- N4&#45;&gt;N5 -->
<g id="edge31" class="edge">
<title>N4&#45;&gt;N5</title>
<path fill="none" stroke="black" d="M1879.77,-192.76C1897.7,-177 1920.52,-156.93 1938.26,-141.33"/>
<polygon fill="black" stroke="black" points="1940.81,-143.75 1946.01,-134.52 1936.19,-138.49 1940.81,-143.75"/>
<text text-anchor="middle" x="1921.5" y="-163.8" font-family="Times New Roman,serif" font-size="14.00">Si</text>
</g>
</g>
</svg>
